# xmcd
#
# Track frame offsets: 
#        150
#        2706
#        20694
#        37540
#        57204
#        61918
#        78526
#        85109
#        109432
#        115330
#        132320
#        150247
#        156266
#        176857
#        183794
#        202778
#        223967
#        238856
#        247417
#        267213
#
# Disc length: 3797 seconds
#
# Revision: 3
# Processed by: cddbd v1.5.2PL0 Copyright (c) Steve Scherf et al.
# Submitted via: ExactAudioCopy v1.0b3
#
DISCID=110ed314
DTITLE=Sabac Red - Sabacolype: A Change Gon' Come
DYEAR=2004
DGENRE=Hip-Hop
TTITLE0=Intro
TTITLE1=Organize
TTITLE2=Sabacolypse
TTITLE3=Positive (Sabac) and Negative (Necro)
TTITLE4=Revelation 1 (feat. Jamal Joseph of The Black Panther Party)
TTITLE5=Protest Music
TTITLE6=Bac's Anthem
TTITLE7=Fight Until The End (feat. Immortal Technique and Roosevelt Phil
TTITLE7=lip)
TTITLE8=Revelation 2 (feat. Jamal Joseph of The Black Panther Party)
TTITLE9=The Scientist (AIDS)
TTITLE10=P.O.W.'s (feat. Mr. Hyde, Necro, Goretex, and Ill Bill)
TTITLE11=Vinyl (Bacapella)
TTITLE12=Unsolved Mysteries
TTITLE13=Revelation 3 (feat. Jamal Joseph of The Black Panther Party)
TTITLE14=A Change Gon' Come (feat. Antwon Lamar Robinson)
TTITLE15=Urban Gorillas (feat. Vinnie Paz of Jedi Mind Tricks and Q-Uniq
TTITLE15=ue)
TTITLE16=Speak Militant
TTITLE17=Freestyle Freedom
TTITLE18=I Have A Dream (feat. Dash Mihok and Cenophia Mitchell)
TTITLE19=A Change Gon' Come [Militant Metal Mix] (feat. Antwon Lamar R
TTITLE19=obinson)
EXTD=
EXTT0=
EXTT1=
EXTT2=
EXTT3=
EXTT4=
EXTT5=
EXTT6=
EXTT7=
EXTT8=
EXTT9=
EXTT10=
EXTT11=
EXTT12=
EXTT13=
EXTT14=
EXTT15=
EXTT16=
EXTT17=
EXTT18=
EXTT19=
PLAYORDER=
